<?xml version="1.0" standalone="yes"?>
<svg xmlns="http://www.w3.org/2000/svg" width="28" height="28">
<path style="fill:#ffffff; stroke:none;" d="M0 0L0 28L28 28L28 0L0 0z"/>
<path style="fill:#000000; stroke:none;" d="M13 1.64198C-3.26188 3.02127 -1.43188 28.1248 15 26.8765C31.3476 25.6346 29.5908 0.234777 13 1.64198z"/>
<path style="fill:#ffffff; stroke:none;" d="M11 14C3.4739 16.8792 6.53681 24.8117 14 24.8117C21.4632 24.8117 24.5261 16.8792 17 14C17.8604 12.0843 18.9282 10.2701 17.8688 8.14429C15.6732 3.73851 10.5391 5.81923 9.95216 9.97454C9.75142 11.3957 10.5377 12.742 11 14z"/>
<path style="fill:#373737; stroke:none;" d="M10 6L11 7L10 6z"/>
<path style="fill:#9b9b9b; stroke:none;" d="M1 11L2 12L1 11z"/>
<path style="fill:#2c2c2c; stroke:none;" d="M8.33333 13.6667C8.27778 13.7222 8.22222 14.7778 8.66667 14.3333C8.72222 14.2778 8.77778 13.2222 8.33333 13.6667z"/>
<path style="fill:#1b1b1b; stroke:none;" d="M11 14C13.0521 14.8742 14.7472 14.9528 17 15C14.9479 14.1258 13.2528 14.0472 11 14z"/>
</svg>
