<?xml version="1.0" standalone="no"?>
<!DOCTYPE svg PUBLIC "-//W3C//DTD SVG 20010904//EN"
 "http://www.w3.org/TR/2001/REC-SVG-20010904/DTD/svg10.dtd">
<svg version="1.0" xmlns="http://www.w3.org/2000/svg"
 width="192.000000pt" height="192.000000pt" viewBox="0 0 192.000000 192.000000"
 preserveAspectRatio="xMidYMid meet">

<g transform="translate(0.000000,192.000000) scale(0.100000,-0.100000)"
fill="#000000" stroke="none">
<path d="M885 1504 c-52 -7 -108 -26 -185 -62 -57 -26 -92 -52 -145 -106 -115
-117 -159 -223 -159 -381 0 -80 5 -113 24 -165 59 -163 176 -282 340 -346 69
-27 85 -29 205 -29 120 1 135 3 200 30 125 52 202 114 271 217 65 97 87 172
88 293 1 119 -24 207 -85 296 -41 60 -154 169 -176 169 -7 0 -13 5 -13 10 0 6
-6 10 -12 10 -7 0 -24 6 -38 13 -76 40 -225 64 -315 51z m169 -276 c-4 -7 -13
-20 -20 -28 -12 -15 0 -61 51 -199 4 -10 9 -11 16 -4 6 6 4 19 -6 39 -8 16
-18 44 -21 62 -3 18 -10 35 -15 38 -18 11 -8 51 18 75 25 23 24 10 -3 -21 -11
-13 -11 -24 2 -65 26 -88 37 -106 59 -101 16 4 24 -3 37 -34 l17 -40 -33 0
c-18 0 -35 -2 -38 -5 -6 -6 32 -125 59 -185 15 -34 45 -70 59 -70 4 0 0 8 -8
18 -8 9 -21 33 -28 52 -7 19 -21 53 -31 75 -10 23 -21 53 -24 68 -7 26 -6 27
35 27 l42 0 -16 26 c-10 14 -16 30 -14 36 2 6 13 -7 25 -30 l20 -42 -44 0
c-41 0 -44 -2 -37 -22 3 -13 10 -27 14 -33 4 -5 17 -39 30 -75 18 -47 36 -77
70 -107 l45 -43 -125 2 -125 2 109 5 c95 5 107 8 93 20 -13 10 -45 13 -119 12
l-102 -2 23 20 c22 20 23 24 12 60 -6 22 -20 58 -30 81 l-18 41 -41 -47 -40
-47 -32 44 c-17 24 -36 43 -41 42 -5 -2 -9 3 -9 11 0 39 -20 19 -39 -39 -26
-79 -26 -92 -1 -130 11 -16 20 -24 20 -17 0 7 5 10 11 6 24 -14 -18 -24 -106
-24 l-90 0 37 31 c38 30 87 119 106 192 10 36 9 38 -18 50 -28 12 -29 13 -14
46 l14 34 24 -22 c14 -13 26 -18 30 -12 4 5 -4 17 -16 25 -12 9 -18 19 -14 23
4 4 12 0 17 -10 6 -9 13 -17 17 -17 4 0 21 39 37 86 28 80 29 87 12 98 -26 20
-21 25 31 29 110 8 133 7 126 -5z m-189 -390 c-4 -13 -11 -45 -16 -73 l-8 -50
4 62 c3 59 9 83 22 83 3 0 2 -10 -2 -22z m154 -20 c-27 -38 -49 -62 -49 -53 0
7 61 85 67 85 3 0 -6 -15 -18 -32z m-124 -158 c18 -20 18 -20 -101 -18 l-119
2 103 3 c86 3 103 6 98 18 -7 20 -3 19 19 -5z"/>
<path d="M914 1078 c-9 -29 -20 -57 -24 -63 -17 -22 -14 -52 10 -85 41 -58 57
-73 65 -60 4 7 3 15 -2 19 -5 3 -21 22 -36 42 -23 30 -26 40 -17 60 l10 24 -4
-25 c-3 -18 5 -36 28 -64 l33 -38 20 22 21 21 -27 79 c-14 44 -29 80 -33 80
-3 0 -9 -13 -13 -30 -4 -16 -11 -32 -16 -35 -13 -9 -11 9 6 41 17 33 20 64 6
64 -5 0 -17 -24 -27 -52z"/>
</g>
</svg>
