<?xml version="1.0" standalone="no"?>
<!DOCTYPE svg PUBLIC "-//W3C//DTD SVG 20010904//EN"
 "http://www.w3.org/TR/2001/REC-SVG-20010904/DTD/svg10.dtd">
<svg version="1.0" xmlns="http://www.w3.org/2000/svg"
 width="221.000000pt" height="225.000000pt" viewBox="0 0 221.000000 225.000000"
 preserveAspectRatio="xMidYMid meet">

<g transform="translate(0.000000,225.000000) scale(0.100000,-0.100000)"
fill="#000000" stroke="none">
<path d="M1015 1973 c-237 -28 -396 -102 -546 -253 -83 -84 -142 -182 -182
-302 -27 -82 -30 -107 -31 -213 0 -144 15 -212 79 -341 32 -66 65 -113 116
-168 117 -126 226 -194 386 -243 77 -23 106 -26 228 -27 159 -1 242 15 361 69
185 84 323 221 403 397 48 105 63 181 65 313 0 113 -1 126 -35 222 -46 131
-87 198 -174 288 -142 146 -283 217 -495 250 -93 15 -115 16 -175 8z m215
-378 c0 -2 -14 -20 -31 -40 l-31 -35 42 -112 c24 -62 47 -124 52 -137 6 -16
12 -21 19 -14 6 6 -6 51 -36 131 l-46 122 33 40 c18 22 36 40 41 40 16 0 6
-28 -18 -50 -14 -13 -25 -31 -25 -39 0 -13 68 -207 77 -220 2 -2 11 3 21 12
24 22 42 22 42 -1 0 -9 9 -34 20 -55 11 -20 20 -39 20 -41 0 -2 -23 -6 -50 -8
-28 -3 -53 -8 -56 -11 -9 -9 106 -309 124 -324 9 -7 31 -23 47 -35 l30 -21
-32 34 c-21 23 -48 77 -82 170 -28 74 -51 141 -51 147 0 8 18 12 50 12 28 0
50 4 50 10 0 5 -9 33 -20 61 -12 28 -19 57 -17 63 3 6 10 -2 16 -17 6 -15 22
-52 36 -81 14 -29 25 -55 25 -57 0 -2 -28 -2 -61 -1 -57 4 -61 2 -55 -15 93
-249 97 -256 163 -313 34 -30 63 -58 63 -62 0 -11 -348 -10 -354 1 -3 5 62 12
145 16 105 5 149 11 146 19 -3 8 -53 11 -165 10 -89 0 -162 3 -162 7 0 4 16
21 35 38 19 17 35 33 35 36 0 16 -63 165 -70 165 -6 0 -64 -71 -97 -119 -2 -2
-6 -1 -9 2 -4 4 19 38 51 77 31 39 54 74 51 77 -12 12 -37 -9 -82 -67 -26 -33
-48 -59 -50 -58 -1 2 -24 32 -50 68 l-48 65 -19 -44 c-43 -98 -33 -179 29
-254 13 -16 24 -33 24 -38 0 -13 -327 -12 -335 1 -4 6 47 10 144 10 160 0 175
5 131 45 -46 42 -50 142 -10 247 13 34 16 56 10 62 -15 15 -26 -2 -48 -79 -34
-117 -32 -152 9 -200 17 -19 29 -35 28 -35 -55 -5 -289 -6 -288 -2 0 4 26 28
58 53 42 35 66 64 89 110 43 88 84 198 77 209 -3 5 -24 15 -45 21 -22 7 -40
14 -40 16 0 2 12 27 26 55 l26 50 33 -32 c24 -23 35 -28 41 -19 5 8 -5 22 -26
41 -41 33 -32 51 10 20 16 -12 31 -18 34 -13 10 16 68 176 73 201 3 18 -3 32
-21 49 -14 14 -26 28 -26 32 0 4 63 7 140 7 77 1 140 -1 140 -3z"/>
<path d="M1012 1367 c-17 -45 -37 -98 -46 -118 l-15 -36 55 -69 c30 -38 59
-70 64 -72 23 -8 7 30 -35 81 -25 31 -45 60 -45 65 0 5 16 49 35 98 36 91 42
119 26 128 -5 3 -22 -31 -39 -77z"/>
<path d="M1041 1300 l-31 -80 41 -55 c23 -30 45 -55 48 -55 4 0 20 13 35 29
l28 29 -42 106 c-23 58 -43 106 -44 106 -2 0 -17 -36 -35 -80z"/>
</g>
</svg>
