<?xml version="1.0" standalone="no"?>
<!DOCTYPE svg PUBLIC "-//W3C//DTD SVG 20010904//EN"
 "http://www.w3.org/TR/2001/REC-SVG-20010904/DTD/svg10.dtd">
 <svg viewBox="0 0 24 24" fill="none" xmlns="http://www.w3.org/2000/svg"><path d="M20.084 20.999H14.7C14.203 20.999 13.8 20.596 13.8 20.099V16.237C13.8 15.834 13.47 15.504 13.067 15.504H10.92C10.522 15.504 10.2 15.826 10.2 16.224V20.083C10.2 20.587 9.788 20.999 9.284 20.999H3.9C3.405 20.999 3 20.594 3 20.099V11.48C3 11.126 3.148 10.789 3.409 10.55L11.398 3.234C11.739 2.922 12.261 2.922 12.602 3.234L20.591 10.55C20.852 10.789 21 11.126 21 11.48V20.084C21 20.587 20.588 20.999 20.084 20.999Z" fill="var(--foreground-color)"></path></svg>
