<?xml version="1.0" standalone="no"?>
<!DOCTYPE svg PUBLIC "-//W3C//DTD SVG 20010904//EN"
 "http://www.w3.org/TR/2001/REC-SVG-20010904/DTD/svg10.dtd">
<svg version="1.0" xmlns="http://www.w3.org/2000/svg"
 width="263.000000pt" height="257.000000pt" viewBox="0 0 263.000000 257.000000"
 preserveAspectRatio="xMidYMid meet">

<g transform="translate(0.000000,257.000000) scale(0.100000,-0.100000)"
fill="#000000" stroke="none">
<path d="M1147 2185 c-282 -54 -507 -201 -656 -429 -181 -278 -187 -642 -14
-928 279 -462 919 -604 1380 -305 192 124 332 312 395 532 20 69 23 102 22
235 0 142 -3 162 -28 240 -106 322 -351 550 -681 636 -127 32 -303 40 -418 19z
m343 -442 c0 -4 -16 -24 -36 -44 l-37 -38 58 -155 c32 -86 61 -158 64 -161 4
-2 12 -1 18 3 8 5 -5 52 -43 151 l-54 143 36 44 c33 39 54 55 54 38 0 -3 -15
-24 -34 -46 l-35 -40 18 -47 c10 -25 33 -85 51 -133 18 -49 36 -88 40 -88 3 0
17 11 30 25 l24 25 22 -57 c11 -32 25 -66 29 -75 6 -16 1 -18 -33 -18 -23 0
-52 -4 -65 -9 l-25 -10 65 -178 c36 -98 73 -185 82 -193 10 -8 33 -27 52 -42
l34 -27 -175 0 -175 0 46 39 47 40 -41 105 -40 106 -30 -28 c-16 -16 -45 -50
-64 -76 -19 -26 -38 -46 -41 -43 -6 7 39 69 90 122 26 27 37 46 32 57 -5 14
-9 14 -36 -6 -16 -12 -49 -48 -73 -80 l-43 -58 -57 81 c-31 45 -59 79 -63 75
-18 -17 -44 -108 -49 -170 -6 -80 4 -108 64 -182 l34 -43 -203 2 -203 3 183 2
c100 2 182 6 182 10 0 3 -11 20 -24 37 -65 86 -72 153 -28 284 27 78 27 83 11
98 -16 15 -20 10 -49 -83 -41 -128 -39 -191 9 -252 l33 -41 -169 0 -168 1 30
21 c59 42 115 109 149 176 45 89 90 218 83 236 -3 8 -25 20 -49 27 -24 7 -44
14 -46 15 -3 2 46 104 54 113 1 1 21 -12 44 -30 34 -28 43 -31 50 -19 7 11 -2
25 -33 52 -26 23 -36 37 -26 38 8 0 26 -11 39 -25 13 -14 27 -25 31 -25 4 0
28 61 54 135 l47 134 -31 38 -31 38 82 6 c132 9 238 10 238 2z m235 -400 c10
-27 28 -68 41 -92 13 -24 24 -44 24 -45 0 0 -33 0 -74 2 l-74 4 59 -159 59
-158 78 -72 77 -72 -210 2 -210 2 188 2 c104 2 187 7 185 12 -2 4 -30 31 -63
60 -59 52 -60 53 -122 219 -35 92 -63 170 -63 175 0 4 32 7 70 7 l70 0 -21 42
c-29 57 -50 118 -40 118 5 0 16 -21 26 -47z"/>
<path d="M1222 1442 c-29 -75 -52 -144 -52 -153 0 -8 12 -26 26 -40 14 -13 42
-46 62 -74 20 -27 37 -52 39 -54 1 -2 9 2 18 9 19 16 10 32 -56 104 l-51 56
47 125 c42 113 50 165 27 165 -4 0 -31 -62 -60 -138z"/>
<path d="M1304 1484 c-4 -10 -22 -57 -41 -103 l-33 -84 33 -36 c17 -20 42 -49
54 -66 l22 -30 35 34 c20 19 36 40 36 45 0 12 -88 248 -95 255 -3 2 -8 -5 -11
-15z"/>
</g>
</svg>
